<svg width="96" height="96" viewBox="0 0 96 96" fill="none" xmlns="http://www.w3.org/2000/svg">
<mask id="mask0_1_766" style="mask-type:luminance" maskUnits="userSpaceOnUse" x="0" y="0" width="96" height="96">
<path d="M0 7.62939e-06H96V96H0V7.62939e-06Z" fill="white"/>
</mask>
<g mask="url(#mask0_1_766)">
<path d="M73.5 92.25H22.5C12.1446 92.25 3.75 83.8554 3.75 73.5V22.5C3.75 12.1446 12.1446 3.75001 22.5 3.75001H73.5C83.8554 3.75001 92.25 12.1446 92.25 22.5V73.5C92.25 83.8554 83.8554 92.25 73.5 92.25Z" stroke="#993556" stroke-width="2" stroke-miterlimit="10" stroke-linecap="round" stroke-linejoin="round"/>
<path d="M18.75 24.1875H77.25" stroke="#993556" stroke-width="2" stroke-miterlimit="10" stroke-linecap="round" stroke-linejoin="round"/>
<path d="M36.1392 49.3125C36.1392 53.4546 32.7812 56.8125 28.6392 56.8125C24.4971 56.8125 21.1392 53.4546 21.1392 49.3125C21.1392 45.1704 24.4971 41.8125 28.6392 41.8125C32.7812 41.8125 36.1392 45.1704 36.1392 49.3125Z" stroke="#993556" stroke-width="2" stroke-miterlimit="10" stroke-linecap="round" stroke-linejoin="round"/>
<path d="M51.75 45.375H77.25" stroke="#993556" stroke-width="2" stroke-miterlimit="10" stroke-linecap="round" stroke-linejoin="round"/>
<path d="M51.75 58.5H77.25" stroke="#993556" stroke-width="2" stroke-miterlimit="10" stroke-linecap="round" stroke-linejoin="round"/>
<path d="M51.75 71.625H67.875" stroke="#993556" stroke-width="2" stroke-miterlimit="10" stroke-linecap="round" stroke-linejoin="round"/>
<path d="M38.5284 71.8125C36.2446 69.7237 33.188 68.4375 29.8241 68.4375H27.4542C24.0905 68.4375 21.0337 69.7237 18.7501 71.8125" stroke="#993556" stroke-width="2" stroke-miterlimit="10" stroke-linecap="round" stroke-linejoin="round"/>
</g>
</svg>
